<?xml version="1.0" standalone="no"?>
<!DOCTYPE svg PUBLIC "-//W3C//DTD SVG 1.1//EN" "http://www.w3.org/Graphics/SVG/1.1/DTD/svg11.dtd">
<svg xmlns="http://www.w3.org/2000/svg">
<metadata>Generated by Fontastic.me</metadata>
<defs>
<font id="tn" horiz-adv-x="512">
<font-face font-family="tn" units-per-em="512" ascent="480" descent="-32"/>
<missing-glyph horiz-adv-x="512" />

<glyph glyph-name="bioproofness" unicode="&#57344;" d="M47 23l370 0 0-23-370 0c-24 0-43 20-43 44 0 24 19 43 43 43l6 0c0 48 13 157 100 242l139-139c-8-16-12-36-15-61 36-2 64-29 66-65l-295 0c-12 0-20-9-20-20-1-11 8-21 19-21z m338 225l42 0c-1 25-17 54-67 60 5 54 40 62 61 68 51 14 87 45 87 77-20 19-51 30-91 30-4 0-8 0-11 0-6 21-22 32-37 29-16-4-27-22-20-48l0 0c-30-20-42-46-43-47-50-16-91-37-123-62l-138 138-16-17 451-451 17 16-183 183c28 27 63 24 71 24z"/>
<glyph glyph-name="costreduction" unicode="&#57345;" d="M303 450c0-34-28-62-62-62-35 0-63 28-63 62 0 34 29 62 63 62 34 0 62-28 62-62z m193-228l0-30c0-42-27-98-111-109l-16-83-76 0 0 35c-15-2-29-4-43-4-26 0-53 3-77 8l0-39-77 0-12 69c-44 31-68 78-68 129 0 94 84 169 211 169 44 0 88-10 124-26 30 21 71 19 99-7l-36-39c20-21 29-42 33-54 8-18 26-22 49-19z m-167 75c-62 31-136 31-199 0l11-21c56 27 122 27 177 0z"/>
<glyph glyph-name="durability" unicode="&#57346;" d="M379 389c-34 0-67-14-91-38-13-12-34-42-34-42l-40-54-26-35c-2-4-6-8-7-10-10-12-29-20-48-20-36 0-66 29-66 65 0 37 30 66 66 66 17 0 33-6 45-18 0 0 11-9 25-32l41 57-3 4c-3 4-10 15-17 21-25 23-57 36-91 36-73 0-133-60-133-133 0-73 60-133 133-133 36 0 70 14 96 41 3 3 8 9 14 17l81 112c3 4 7 9 9 11 12 14 27 19 45 19 36 0 66-30 66-66 0-36-29-67-65-67-18 0-35 8-48 21l0 0c-9 10-22 30-22 30l-42-57 2-3c6-8 11-14 14-17 26-27 60-41 96-41 73 0 133 60 133 133 0 73-60 133-133 133z"/>
<glyph glyph-name="eco" unicode="&#57347;" d="M118 76c-7 0-10 0-12 0-12-32-17-61-20-76-9 3-38 10-47 13 64 232 239 356 350 417 0 0-1 1-1 1-98-27-234-108-348-291-6 25-10 60-7 108 16 276 347 274 442 259 25-217-38-435-357-431z"/>
<glyph glyph-name="efficiency" unicode="&#57348;" d="M512 387l-329-331-183 184 68 68 115-115 262 263z"/>
<glyph glyph-name="graphite" unicode="&#57349;" d="M94 478c0 1 0 1 0 1 48 0 98 0 146 0-2-2-4-5-5-7-31-39-62-78-93-117 0-1-1-1-2-2-1 4-3 9-5 13-14 38-27 75-41 112z m57-153c35-98 70-195 106-292 0 0 0 0 1 0 37 97 74 195 111 292-73 0-145 0-218 0z m356 1c-38 0-77 0-115 0-3 0-4-2-5-5-30-82-61-164-91-246-4-9-7-18-10-27 0 0 1 0 1 0 74 92 149 184 225 278-3 0-4 0-5 0z m-377-5c-1 2-2 3-5 3-38 0-75 0-113 0-2 0-2 0-4 0 74-91 149-182 223-273 0 2 0 3 0 4-34 89-68 177-101 266z m230 27c-33 42-67 84-100 126-34-43-67-85-101-127 67 0 134 1 201 1z m67 131c-49 0-98 0-147 0 34-41 67-82 100-123 15 41 31 82 47 123z m-347-19c-27-38-53-76-79-115 41 0 81 0 123-1-15 39-29 77-44 116z m431-113c-23 39-46 78-69 117-16-39-32-78-47-117 38 0 77 0 116 0z"/>
<glyph glyph-name="highdurability" unicode="&#57350;" d="M286 219c0-26-6-40-18-40-11 0-17 14-17 40 0 27 6 40 17 40 12 0 18-13 18-40z m53-159l174 0 0-45-513 0 0 45 174 0c-57 29-96 89-96 158 0 45 17 87 44 118l0 88c0 40 33 72 72 72l123 0c40 0 73-32 73-72l0-88c27-32 44-73 44-118 1-69-38-129-95-158z m-172 313c26 15 57 23 89 23 33 0 63-8 89-23l0 51c0 15-12 28-27 28l-123 0c-15 0-28-13-28-28z m49-192l-42 0c16 16 27 28 32 37 6 9 9 18 9 26 0 11-3 20-11 26-7 6-17 10-28 10-17 0-30-6-40-19l14-15c7 9 15 13 26 13 4 0 8-1 11-4 3-2 5-6 5-10 0-7-4-13-10-21-5-8-20-22-43-44l0-19 77 0 0 20z m94 38c0 8-1 15-3 23-1 7-3 13-7 19-3 6-8 10-13 14-6 3-12 5-19 5-9 0-17-4-23-9-7-6-12-14-14-23-3-9-4-18-4-29 0-11 1-21 4-29 3-9 7-17 14-23 6-6 14-9 23-9 7 0 13 2 19 5 5 4 10 9 13 14 3 6 5 13 7 20 2 6 3 14 3 22z m28 8l0-67 21 0 0 67 19 0 0 18-59 0 0-18z"/>
<glyph glyph-name="incombustibility" unicode="&#57351;" d="M278 352c-28 22-61 31-61 31 0 0 22-24-2-70-23-42-60-65-60-108 0 0-1-23 10-45 12-26 37-47 68-54-10 14-14 29-13 43 1 24 15 46 35 72 23-27 36-50 36-76 0-12-3-24-11-38 26 7 53 23 63 42 7 13 15 23 16 54 1 86-57 131-81 149z m173 85l-22 0c-61 0-117 22-157 60l-16 15-16-15c-41-38-96-60-157-60l-22 0 0-220c0-29 9-173 190-216l5-1 6 1c180 43 190 187 190 216l0 220z m-195-390c-35 10-150 49-150 170l0 175c56 4 108 25 150 57 41-33 93-53 149-57l0-175c0-121-114-160-149-170z"/>
<glyph glyph-name="lowabsorption" unicode="&#57352;" d="M512 167l0-101-512 0 0 101z m-415 81c39 0 70 32 70 70 0 6 0 11-2 17-1 8-5 16-10 23l-58 88-57-88c-8-11-13-25-13-40 0-38 32-70 70-70z m89 70c0 15 4 29 12 40l58 89 58-89c8-11 12-25 12-40 0-38-32-70-70-70-39 0-70 32-70 70z m34 0c0-20 16-36 36-36 20 0 37 16 37 36 0 8-3 15-6 21l-1 1 0 0-30 45-29-45-1-1 0 0c-5-6-6-13-6-21z m125 0c0 15 5 29 12 40l58 89 58-89c8-11 12-25 12-40 0-38-31-70-70-70-39 0-70 32-70 70z m33 0c0-20 17-36 37-36 20 0 36 16 36 36 0 8-2 15-6 21l-1 1-29 45-30-45-1-1c-4-6-6-13-6-21z"/>
<glyph glyph-name="moisture" unicode="&#57353;" d="M451 437l-23 0c-60 0-116 22-156 60l-16 15-16-15c-41-38-96-60-157-60l-22 0 0-220c0-28 9-172 189-215l6-1 5 1c181 43 190 187 190 215z m-195-389c-35 9-150 49-150 169l0 175c56 4 108 24 149 57 42-33 94-53 150-57l0-175c0-120-114-160-149-169z m0 256l40-59c5-8 8-17 8-27 0-27-22-49-49-49-26 0-48 22-48 49 0 10 3 19 8 27l41 59m0 76l-75-111c-10-14-17-32-17-52 0-50 41-91 92-91 50 0 91 41 91 91 0 19-6 37-16 52z"/>
<glyph glyph-name="simplicity" unicode="&#57354;" d="M246 229l0-153-245 0 0 153 32 0 0 35 63 0 0-35z m234 0l0 35-63 0 0-35-151 0 0-153 245 0 0 153z m-129 172l0 35-63 0 0-35-64 0 0 35-64 0 0-35-32 0 0-153 255 0 0 153c0 0-32 0-32 0z"/>
<glyph glyph-name="space" unicode="&#57355;" d="M389 0l123 0 0 123-44 0 0-48-80 80 0 202 80 80 0-48 44 0 0 123-123 0 0-44 48 0-77-77-208 0-78 77 48 0 0 44-122 0 0-123 44 0 0 49 77-78 0-208-77-77 0 48-44 0 0-123 124 0 0 43-49 0 80 81 202 0 81-80-49 0 0-44z m-45 168l-179 0 0 179 179 0z"/>
<glyph glyph-name="scroll" unicode="&#57356;" d="M141 511l-36 0-27-25-50-48-25-25 0-412 407 0 24 25 76 80 0 405z m343-395l-85-90-371 0 0 376 87 84 369 0z m-237-13l-91 93 17 19 74-76 0 257 25 0 0-256 73 75 18-18-91-94 0 0-1 0-12-13-2 2z"/>
<glyph glyph-name="reliability" unicode="&#57357;" d="M254 512l-254-182 0-330 512 0 0 330z m223-477l-442 0 0 276 219 158 223-158z m-301 228l0-27-19 0 0-162 199 0 0 162-19 0 0 28c0 44-36 80-81 80-45 0-80-36-80-81z m103-159l-46 0 13 54c-8 4-13 11-13 20 0 13 11 24 23 24l1 0c12 0 22-11 22-24 0-9-5-16-13-20z m-68 156l0 3c0 24 21 44 45 44 24 0 45-20 45-44l0-27-90 0z"/>
<glyph glyph-name="resistance" unicode="&#57358;" d="M452 437l-23 0c-61 0-116 22-157 60l-16 15-16-15c-40-38-96-59-157-60l-23 0 0-220c0-28 9-172 191-215l5-2 6 2c181 43 190 187 190 216z m-196-390c0 191 0 317 0 403 42-33 93-53 150-58l0-175c-1-121-115-160-150-170z"/>
<glyph glyph-name="quality" unicode="&#57359;" d="M206 131l18-14-16-117-104 52 41 88c5-2 11-3 16-3l25 0c8 0 15-2 20-6z m145 6l-25 0c-8 0-14-2-20-6l-18-13 16-118 104 52-41 88c-5-2-10-3-16-3z m82 165c-4 11-4 21 0 32l7 24c5 13 0 28-11 37l-21 14c-9 7-15 16-18 26l-8 24c-4 13-17 22-31 22l-25 0c-11 0-22 4-30 10l-21 15c-5 4-12 6-19 6-7 0-14-2-19-6l-20-15c-9-6-19-10-30-10l-26 0c-14 0-27-9-31-22l-8-24c-3-10-9-19-18-26l-21-14c-11-9-16-23-11-37l7-24c4-10 4-21 0-32l-7-24c-5-13 0-28 11-36l21-15c9-6 15-15 18-25l8-25c4-13 17-22 31-22l25 0c11 0 21-4 30-10l20-15c12-8 27-8 39 0l20 15c9 6 19 10 29 10l26 0c14 0 27 9 31 22l7 25c4 10 10 19 19 25l20 15c12 8 17 23 12 36z"/>
<glyph glyph-name="strength" unicode="&#57360;" d="M229 259l0-41-45 0c-9 0-19 3-25 9l0 29c0 29-24 54-53 54l-106 0c0 20 0 47 0 69l106 0c66 0 121-53 123-120z m-229-126l121 0c-29 15-52 39-64 69l-57 0z m283 126l0-41 45 0c9 0 18 3 25 9l0 29c0 29 24 54 53 54l106 0c0 20 0 47 0 69l-106 0c-66 0-121-53-123-120z m167 35l-44 0c-9 0-18-3-25-9l0-33c-2-28-25-50-53-50l-144 0c-28 0-51 22-54 50l0 33c-6 6-15 9-25 9l-43 0c-1-12-1-25-1-38 0-68 55-123 123-123l144 0c68 0 123 55 123 123 0 14 0 26-1 38z m-282 85c29-15 52-39 65-69l46 0c13 30 36 54 64 69z m344-177l-56 0c-13-30-36-54-65-69l121 0z"/>
<glyph glyph-name="selfadhesive" unicode="&#57361;" d="M465 512l0-121-261 0c-43 0-78-35-78-78l0-212c0-30-24-53-53-53l-73 0 0-48 421 0c25 0 48 10 65 27 17 17 27 41 27 65l0 420z m0-420c0-12-4-23-13-31-8-9-19-13-31-13l-246 0 290 290z"/>
<glyph glyph-name="seamless" unicode="&#57362;" d="M256 29c-57 0-110 22-149 61-7 7-13 13-19 20-30 32-47 48-77 48l-11 0 0 56 11 0c56 0 87-34 118-66 5-6 11-13 17-19 29-29 67-44 110-44 43 0 81 15 109 44 6 6 12 13 18 19 30 32 62 66 118 66l11 0 0-56-11 0c-31 0-48-16-77-48-6-7-12-13-19-20-39-39-92-61-149-61z m132 219c0-73-59-132-132-132-73 0-132 59-132 132 0 31 14 64 27 85 0 0 86 138 86 138 4 7 10 12 19 12 8 0 15-5 18-12 0 0 87-138 87-138 13-21 27-54 27-85z m-55 0c0 15-8 38-19 56l-58 92-58-92c-11-18-19-41-19-56 0-42 34-76 76-76 43 0 78 34 78 76z"/>
<glyph glyph-name="absorption" unicode="&#57363;" d="M1 325l56 0 0-138-56 0z m79 21l0-181 139-139 47 0 0 460-46 0z m431-25l-36 37-65-65-65 65-37-37 65-65-65-65 36-37 65 65 65-65 37 37-65 65z"/>
<glyph glyph-name="elasticity" unicode="&#57364;" d="M512 180l0-112c-219 0-228 187-233 266-4 56-8 63-23 63-16 0-21-7-27-66-4-41-9-149-40-190-36-49-98-73-189-73l0 112c166 0 175 75 183 156 5 48 11 108 73 108 62 0 66-59 69-107 6-82 11-157 187-157z"/>
<glyph glyph-name="highspeed" unicode="&#57365;" d="M447 356l-64 64 38 38 64-64z m17-138c0-120-98-218-219-218-120 0-218 98-218 218 0 113 85 205 194 217l0 23-21 0 0 54 91 0 0-54-22 0 0-23c110-12 195-104 195-217z m-48 0c0 94-77 170-171 170-94 0-170-76-170-170 0-94 76-170 170-170 94 0 171 76 171 170z m-139 135l-60-163 163 59c-11 51-52 91-103 104z"/>
<glyph glyph-name="safety" unicode="&#57366;" d="M452 435l-21 0c-62 1-117 22-161 64l-14 13-14-13c-44-42-99-63-161-64l-21 0 0-213c0-41 14-179 191-221l5-1 5 1c177 42 191 180 191 221z m-196-393c-140 35-155 137-155 179l0 174c58 5 111 26 155 62 44-36 97-57 155-62l0-174c0-42-15-144-155-179z"/>
<glyph glyph-name="shocknoise" unicode="&#57367;" d="M16 271l484 0 0-48-484 0z m340-114l-39 39-59-59-59 59-39-39 60-59-60-59 39-38 59 59 59-59 39 38-59 59z m-280 335l-19 19c-60-59-60-156 0-215l19 19c-50 49-50 129 0 177z m29-30l-19 19c-43-43-43-112 0-155l19 19c-32 32-32 85 0 117z m29-28l-19 19c-27-27-27-71 0-99l19 19c-17 17-17 44 0 61z m366-15l-250 0 0 81-60-29c-15-8-14-11-14-18l0-145 74 0 0 57 250 0 0 54z"/>
<glyph glyph-name="shrinkage" unicode="&#57368;" d="M406 195c23-17 36-39 36-67 0-36-30-124-276-129-40-1-96 7-96 58 0 18 11 60 107 60 46 0 88-5 124-14l0-6c-41-19-111-31-175-37l0-5c186 0 256 42 257 74 1 9-3 25-32 36-41-15-100-27-186-30-83-2-95 41-95 59 0 18 11 61 107 61 46 0 88-5 124-15l0-6c-40-19-111-31-175-37 0-3 0-3 0-3l0-2c134 0 253 26 258 74 0 7-4 24-34 35-38-14-92-25-169-28-58-2-111 7-111 58 0 18 11 60 107 60 46 0 88-5 124-14l0-8c-40-20-111-31-175-37l0-5c25-1 253 2 258 76 2 28-44 49-130 54l0 56c99-5 188-33 188-110 0-17-6-45-36-70 23-17 36-40 36-67 0-17-5-45-36-71z"/>
<glyph glyph-name="stquality" unicode="&#57369;" d="M346 140l41-88-104-52-16 117 18 14c6 4 12 6 20 6l25 0c6 0 11 1 16 3z m-181-3l-25 0c-6 0-11 1-16 3l-41-88 104-52 16 117-18 14c-6 4-13 6-20 6z m289 284l-37-38c4-7 5-17 3-25l-8-24c-4-11-4-21 0-32l8-24c4-13-1-28-12-36l-21-15c-9-6-15-15-18-25l-8-25c-4-13-17-22-31-22l-25 0c-11 0-22-4-30-10l-20-15c-11-8-27-8-39 0l-20 15c-8 6-19 10-30 10l-25 0c-14 0-27 9-31 22l-7 25c-4 10-10 19-19 25l-20 15c-12 8-17 23-12 36l8 24c3 11 3 21 0 32l-9 24c-5 13 0 28 12 36l20 15c9 6 15 15 19 25l7 25c4 13 17 22 31 22l26 0c11 0 21 3 30 9l20 15c5 5 12 7 19 7 7 0 14-2 19-6l21-15c8-6 19-10 30-10l25 0c14 0 27-9 31-22l7-24c1-1 1-2 1-2l37 36 9 9 9-9 30-31 9-9z m-9 9l-30 30-40-39-78-78-51 51-30-31 81-81 112 111z"/>
</font>
</defs>
</svg>
